# xmcd
#
# Track frame offsets: 
#        150
#        18380
#        39841
#        55173
#        69788
#        91994
#        104405
#        119316
#        136703
#        156019
#        176890
#
# Disc length: 3243 seconds
#
# Revision: 0
# Processed by: cddbd v1.4PL0 Copyright (c) Steve Scherf et al.
# Submitted via: ExactAudioCopy v0.90b3
#
DISCID=830ca90b
DTITLE=the Tex Watson Swingers Convention - Used Car
DYEAR=1996
DGENRE=Crossover
TTITLE0=My Misery
TTITLE1=Used Car
TTITLE2=Buttercup
TTITLE3=Ezra Pound
TTITLE4=A Little Place in the Country
TTITLE5=Deathabilly
TTITLE6=Sweet Substitute
TTITLE7=Bad Lieutenant
TTITLE8=Gone
TTITLE9=Trash
TTITLE10=Sweet Sad Summer
EXTD=
EXTT0=
EXTT1=
EXTT2=
EXTT3=
EXTT4=
EXTT5=
EXTT6=
EXTT7=
EXTT8=
EXTT9=
EXTT10=
PLAYORDER=
